<svg width="70" height="70" viewBox="0 0 70 70" fill="none" xmlns="http://www.w3.org/2000/svg">
<g clip-path="url(#clip0_1_3639)">
<path fill-rule="evenodd" clip-rule="evenodd" d="M20.7658 17.8555C20.0446 18.3382 19.252 18.7225 18.4084 18.9893C18.412 19.0958 18.4135 19.203 18.4135 19.3109C18.4135 19.9992 18.3391 20.6701 18.1962 21.3168C18.7205 22.0861 19.2411 22.9691 19.6808 23.9382C20.7082 26.203 21.2951 28.9585 20.329 31.8569C19.0209 35.7813 16.8122 38.4843 15.3984 41.21C13.819 44.255 13.1124 47.3182 15.149 51.7727C16.9829 55.7831 19.7836 57.3617 22.865 58.0479C22.857 57.2772 22.938 56.5414 23.102 55.8545C20.7213 55.2647 18.5622 53.9777 17.1389 50.8634C15.1162 46.4388 16.409 43.6782 18.2516 40.6062C19.637 38.2955 21.3126 35.8251 22.4042 32.5489C23.565 29.0679 22.9066 25.7545 21.6729 23.0348C21.1413 21.8615 20.5033 20.8028 19.8689 19.8928C23.7349 20.9092 27.3574 20.6482 30.7758 19.3372C30.705 27.3099 29.2219 35.1418 25.7365 42.7733C25.4857 43.3224 25.7277 43.9713 26.2768 44.2222C26.8259 44.473 27.4756 44.2309 27.7264 43.6818C28.9055 41.1006 29.8643 38.4967 30.6234 35.8747C31.6748 38.9408 33.088 41.6467 34.9327 43.9174C35.3134 44.3855 36.0032 44.4569 36.4713 44.0763C36.9401 43.6957 37.0116 43.0059 36.631 42.5378C34.2583 39.6175 32.6825 35.9067 31.6814 31.6156C32.5907 27.2523 32.9873 22.8372 32.9647 18.3798C34.2422 17.9065 35.6656 17.9729 36.9015 18.5788C37.1356 18.6955 37.3711 18.8063 37.6073 18.9128C37.0204 27.242 38.1914 35.5028 41.8066 43.6702C42.0509 44.2222 42.6969 44.4723 43.2489 44.2273C43.8009 43.983 44.051 43.3369 43.8067 42.785C40.4394 35.1768 39.2924 27.4827 39.7474 19.7265C42.8347 20.6898 46.0875 20.7991 49.5343 19.8928C48.8999 20.8035 48.2619 21.8623 47.7303 23.0348C46.4966 25.7545 45.8382 29.0679 46.999 32.5489C48.0906 35.8251 49.7662 38.2955 51.1516 40.6062C52.9942 43.6782 54.287 46.4388 52.2643 50.8634C50.841 53.9777 48.6812 55.2654 46.2997 55.8545C46.4696 56.5414 46.5579 57.2757 46.5571 58.0442C49.6313 57.3552 52.424 55.7751 54.2542 51.7727C56.2908 47.3182 55.5842 44.255 54.0048 41.21C52.591 38.4843 50.3823 35.7813 49.0742 31.8569C48.1081 28.9585 48.695 26.203 49.7224 23.9382C50.1621 22.9691 50.6827 22.0861 51.207 21.3168C51.0641 20.6701 50.9897 19.9992 50.9897 19.3109C50.9897 19.203 50.9912 19.0958 50.9948 18.9893C50.1512 18.7225 49.3586 18.3382 48.6374 17.8555C45.5676 18.5919 42.6714 18.4228 39.9239 17.4785C40.2083 14.5662 40.7099 11.6444 41.3961 8.71538C41.5332 8.12767 41.1679 7.5385 40.5801 7.40069C39.9924 7.26288 39.4033 7.62892 39.2662 8.21663C38.6107 11.0144 38.1185 13.8064 37.8159 16.5911C36.2781 15.8517 34.5419 15.6899 32.9181 16.1062C32.8058 13.0145 32.5002 9.90392 32.0329 6.77653C31.9432 6.17934 31.3861 5.76736 30.7889 5.85632C30.1924 5.946 29.7797 6.50309 29.8694 7.10028C30.3645 10.4129 30.6737 13.7073 30.7561 16.9798C27.6316 18.3469 24.3154 18.7064 20.7658 17.8555Z" fill="#38A0A7"/>
<path fill-rule="evenodd" clip-rule="evenodd" d="M26.548 54.0184C31.5894 49.5078 38.7105 49.8359 42.8922 54.0184C44.8311 55.9573 44.9361 59.5025 42.8922 63.1585C41.6424 65.5553 38.674 67.9528 35.8995 69.7392C35.1798 70.1979 34.2604 70.1979 33.5407 69.74C30.7662 67.9528 27.7985 65.5553 26.548 63.1585C24.5048 59.5025 24.5048 55.8464 26.548 54.0184Z" fill="#38A0A7"/>
<path fill-rule="evenodd" clip-rule="evenodd" d="M2 19.3108C2 9.04633 8.29781 3.21446 14.6715 3.00664C20.0739 2.83019 22.7178 6.19383 22.7178 10.1204C22.7178 13.46 20.4115 16.2651 17.3059 17.0285C16.6038 17.197 16.1334 17.8576 16.2034 18.5773C16.2144 18.8194 16.2268 19.0636 16.2268 19.3108C16.2268 23.2366 13.0396 26.4238 9.11375 26.4238C5.18792 26.4238 2 23.2366 2 19.3108Z" fill="#38A0A7"/>
<path fill-rule="evenodd" clip-rule="evenodd" d="M67.4053 19.3108C67.4053 9.04633 61.1075 3.21446 54.7339 3.00664C49.3315 2.83019 46.6875 6.19383 46.6875 10.1204C46.6875 13.46 48.9939 16.2651 52.0994 17.0285C52.8016 17.197 53.2719 17.8576 53.2019 18.5773C53.1909 18.8194 53.1785 19.0636 53.1785 19.3108C53.1785 23.2366 56.3657 26.4238 60.2916 26.4238C64.2174 26.4238 67.4053 23.2366 67.4053 19.3108Z" fill="#38A0A7"/>
</g>
<defs>
<clipPath id="clip0_1_3639">
<rect width="70" height="70" fill="white"/>
</clipPath>
</defs>
</svg>
